<?xml version="1.0" encoding="UTF-8"?>
<!-- Generated by jsxcad -->
<!DOCTYPE svg PUBLIC "-//W3C//DTD SVG 1.1 Tiny//EN" "http://www.w3.org/Graphics/SVG/1.1/DTD/svg11-tiny.dtd">
<svg baseProfile="tiny" height="24.42500mm" width="147.00000mm" viewBox="-0.00000 14.42424 147.00000 24.42500" version="1.1" stroke="black" stroke-width=".1" fill="none" xmlns="http://www.w3.org/2000/svg">
<path stroke="#000000" d="M 0.00000 14.42424 L 147.00000 14.42424 L 147.00000 24.42424 L 0.00000 24.42424 z"/>
<path stroke="#000000" d="M 3.94286 36.22067 L 5.25714 36.87781 L 7.22857 38.84924 L 7.22857 25.04924"/>
<path stroke="#000000" d="M 21.68571 38.84924 L 15.11429 29.64924 L 24.97143 29.64924 M 21.68571 38.84924 L 21.68571 25.04924"/>
<path stroke="#000000" d="M 37.45714 38.84924 L 30.88571 25.04924 M 28.25714 38.84924 z"/>
<path stroke="#000000" d="M 42.71429 26.36353 L 42.05714 25.70639 L 42.71429 25.04924 L 43.37143 25.70639 z"/>
<path stroke="#000000" d="M 49.94286 36.22067 L 51.25714 36.87781 L 53.22857 38.84924 L 53.22857 25.04924"/>
<path stroke="#000000" d="M 67.68571 38.84924 L 61.11429 29.64924 L 70.97143 29.64924 M 67.68571 38.84924 L 67.68571 25.04924"/>
<path stroke="#000000" d=""/>
<path stroke="#000000" d="M 84.77143 34.24924 L 92.00000 25.04924 M 92.00000 34.24924 L 84.77143 25.04924"/>
<path stroke="#000000" d=""/>
<path stroke="#000000" d="M 108.42857 36.22067 L 109.74286 36.87781 L 111.71429 38.84924 L 111.71429 25.04924"/>
<path stroke="#000000" d="M 123.54286 38.84924 L 121.57143 38.19210 L 120.25714 36.22067 L 119.60000 32.93496 L 119.60000 30.96353 L 120.25714 27.67781 L 121.57143 25.70639 L 123.54286 25.04924 L 124.85714 25.04924 L 126.82857 25.70639 L 128.14286 27.67781 L 128.80000 30.96353 L 128.80000 32.93496 L 128.14286 36.22067 L 126.82857 38.19210 L 124.85714 38.84924 z"/>
</svg>